# xmcd
# 
# Track frame offsets:
#     150
#     20135
#     42260
#     65847
#     92617
#     122050
#     149985
#     173392
#     193167
#     234517
# 
# Disc length: 3435
# 
# Revision: 1
# Processed by: cddbd v1.5.2PL0 Copyright (c) Steve Scherf et al.
# Submitted via: BonkEnc v1.0.8
# 
DISCID=920d690a
DTITLE=Morgan Workshop - Morgan Workshop
DYEAR=1994
DGENRE=Big Band
TTITLE0=Morgan Song
TTITLE1=Claire
TTITLE2=Soul To Soul
TTITLE3=Beautiful Girl
TTITLE4=Exclusively For You
TTITLE5=The Only One
TTITLE6=Living Legend
TTITLE7=Saxonor
TTITLE8=Morgan's Music
TTITLE9=Way To Windsor
EXTD=
EXTT0=
EXTT1=
EXTT2=
EXTT3=
EXTT4=
EXTT5=
EXTT6=
EXTT7=
EXTT8=
EXTT9=
PLAYORDER=
